:SAMPLES-PER-SECOND 30
:FULLY-SPECIFIED
:DEGREES
439
root  -3.35148 40.9424 0.94344 4.30856 -88.8917 -2.74973
RightUpLeg  4.47572 -0.525905 -0.169834
RightLeg  -3.98835 -18.2107 1.1351
RightFoot  -1.07471 -0.185384 1.98286
RightToes  -3.10678e-008 1.75238e-005 3.56266e-009
Spine  -4.11143 0.115029 -5.93101
Spine1  6.80232 -1.20111 7.22435
HEad  -9.35114 -1.77779 0.564974
LeftShoulder1  1.45377 -1.12917 -25.1889
LeftArm  -33.3907 28.5384 -62.1781
LeftForeArm  56.0663 -28.4247 -3.25629
LeftHand  -1.04805 -4.33243 12.7597
RightShoulder  1.52864 1.47557 24.6551
RightArm  -2.77793 -38.641 46.2493
RightForeArm  17.3204 65.1552 23.5161
RightHand  -0.532151 8.70388 -4.75553
LeftUpLeg  2.97949 0.912341 1.97062
LeftLeg  -2.58195 13.3933 -0.933984
LeftFoot  -0.97357 0.199647 -2.2331
LeftToes  4.76857e-008 1.46588e-008 1.31384e-009
440
root  -3.35358 40.9427 0.954936 3.73581 -88.9959 -2.20435
RightUpLeg  4.48566 -0.567237 -0.224742
RightLeg  -3.95451 -18.0578 1.13098
RightFoot  -1.07807 -0.184521 1.9642
RightToes  -3.10678e-008 1.75238e-005 3.56266e-009
Spine  -4.28651 -0.00301097 -5.93934
Spine1  7.06424 -1.34526 7.27648
HEad  -9.44917 -1.65337 0.382775
LeftShoulder1  1.38293 -0.920141 -25.0551
LeftArm  -33.712 28.2153 -62.4739
LeftForeArm  56.4366 -28.2855 -3.21193
LeftHand  -1.0846 -4.43401 13.0617
RightShoulder  1.54166 1.53349 24.5537
RightArm  -2.57828 -38.623 46.0683
RightForeArm  16.6297 65.0582 23.4894
RightHand  -0.490258 8.65431 -4.42542
LeftUpLeg  3.01981 0.906684 1.93491
LeftLeg  -2.56874 13.4963 -0.947168
LeftFoot  -1.01315 0.20168 -2.27559
LeftToes  4.76857e-008 1.46588e-008 1.31384e-009
441
root  -3.36248 40.943 0.979265 3.27875 -89.1955 -1.7388
RightUpLeg  4.42272 -0.618382 -0.305945
RightLeg  -3.84721 -17.8014 1.10099
RightFoot  -1.08701 -0.189768 2.03862
RightToes  -3.10678e-008 1.75238e-005 3.56266e-009
Spine  -4.4628 -0.13649 -5.70737
Spine1  7.24697 -1.44371 7.0261
HEad  -9.69203 -1.31266 0.132957
LeftShoulder1  1.25445 -0.544354 -24.7759
LeftArm  -33.9931 28.2347 -62.8848
LeftForeArm  56.7835 -28.4238 -3.22681
LeftHand  -1.10788 -4.59015 13.1346
RightShoulder  1.60331 1.7262 24.6046
RightArm  -2.32183 -39.4976 45.5829
RightForeArm  17.4418 65.839 24.4005
RightHand  -0.506588 8.22703 -4.68832
LeftUpLeg  3.11296 0.839172 1.84722
LeftLeg  -2.69945 13.7791 -0.953183
LeftFoot  -0.976536 0.199098 -2.24509
LeftToes  4.76857e-008 1.46588e-008 1.31384e-009
442
root  -3.37096 40.9433 0.995264 1.2106 -89.3481 0.332916
RightUpLeg  4.41766 -0.66447 -0.385875
RightLeg  -3.83896 -17.5873 1.08934
RightFoot  -1.10154 -0.192822 2.0776
RightToes  -3.10678e-008 1.75238e-005 3.56266e-009
Spine  -4.53497 -0.232124 -5.77813
Spine1  7.2987 -1.57101 7.1662
HEad  -9.81071 -0.929983 -0.0247111
LeftShoulder1  1.3579 -0.87542 -24.7976
LeftArm  -33.6937 29.0838 -62.881
LeftForeArm  56.3614 -29.3552 -3.44051
LeftHand  -1.09429 -4.46882 13.1303
RightShoulder  1.57157 1.64483 24.4613
RightArm  -2.04804 -39.8183 45.4188
RightForeArm  17.3684 66.0866 24.7545
RightHand  -0.56669 7.86189 -5.31925
LeftUpLeg  3.18728 0.807853 1.77679
LeftLeg  -2.79469 13.9783 -0.987525
LeftFoot  -0.962798 0.192053 -2.14377
LeftToes  4.76857e-008 1.46588e-008 1.31384e-009
443
root  -3.38309 40.9436 1.01269 0.685364 -89.5608 0.831329
RightUpLeg  4.45807 -0.643757 -0.395994
RightLeg  -3.87551 -17.3904 1.05845
RightFoot  -1.06543 -0.189878 2.02237
RightToes  -3.10678e-008 1.75238e-005 3.56266e-009
Spine  -4.57902 -0.258764 -5.91271
Spine1  7.33899 -1.66773 7.47278
HEad  -9.98902 -0.320693 -0.189039
LeftShoulder1  1.34768 -0.848496 -24.7514
LeftArm  -32.7606 30.0508 -63.1317
LeftForeArm  56.0602 -30.4404 -3.68516
LeftHand  -1.08667 -4.45369 13.061
RightShoulder  1.43286 1.24695 24.0947
RightArm  -1.73654 -39.6676 45.6341
RightForeArm  17.3096 65.7469 24.2934
RightHand  -0.536899 8.42435 -4.88264
LeftUpLeg  3.26074 0.819563 1.76107
LeftLeg  -2.79224 14.1532 -1.00256
LeftFoot  -1.0005 0.199135 -2.26048
LeftToes  4.76857e-008 1.46588e-008 1.31384e-009
444
root  -3.4095 40.9439 1.0428 1.43137 -90 0
RightUpLeg  4.4993 -0.686638 -0.489355
RightLeg  -3.74954 -16.9476 0.960964
RightFoot  -1.07704 -0.195092 2.09281
RightToes  -3.10678e-008 1.75238e-005 3.56266e-009
Spine  -4.64868 -0.253391 -6.03107
Spine1  7.46148 -1.72853 7.76616
HEad  -10.2809 -0.0330674 -0.327028
LeftShoulder1  1.41531 -1.04947 -24.879
LeftArm  -32.5448 30.8648 -63.2811
LeftForeArm  55.8987 -30.8068 -3.77184
LeftHand  -1.09329 -4.52657 13.0465
RightShoulder  1.4223 1.23946 23.9074
RightArm  -2.0217 -40.1414 45.808
RightForeArm  17.5563 65.7489 24.2614
RightHand  -0.444596 8.69221 -4.04304
LeftUpLeg  3.56225 0.81815 1.67887
LeftLeg  -3.03382 14.5652 -1.10709
LeftFoot  -0.978354 0.1938 -2.18224
LeftToes  4.76857e-008 1.46588e-008 1.31384e-009
445
root  -3.40927 40.9442 1.09488 -167.442 -89.641 168.856
RightUpLeg  4.35446 -0.786366 -0.671882
RightLeg  -3.48849 -16.3434 0.865752
RightFoot  -1.14324 -0.202953 2.20374
RightToes  -3.10678e-008 1.75238e-005 3.56266e-009
Spine  -4.67846 -0.327631 -5.63899
Spine1  7.55992 -1.73805 7.33977
HEad  -10.648 0.515855 -0.29974
LeftShoulder1  1.4035 -1.01509 -24.8536
LeftArm  -32.7377 30.838 -63.4409
LeftForeArm  55.1056 -30.0314 -3.63795
LeftHand  -1.05912 -4.33466 12.8877
RightShoulder  1.41577 1.21559 23.9236
RightArm  -2.33335 -39.9872 46.1445
RightForeArm  16.646 64.761 23.1172
RightHand  -0.525567 8.44139 -4.77042
LeftUpLeg  3.73294 0.648734 1.4586
LeftLeg  -3.2564 15.2141 -1.09512
LeftFoot  -0.944909 0.194521 -2.19608
LeftToes  4.76857e-008 1.46588e-008 1.31384e-009
446
root  -3.38673 40.9445 1.1495 -167.653 -89.0282 168.965
RightUpLeg  4.11197 -0.913804 -0.934822
RightLeg  -2.94552 -15.579 0.631142
RightFoot  -1.26947 -0.212431 2.33941
RightToes  -3.10678e-008 1.75238e-005 3.56266e-009
Spine  -4.28733 -0.455957 -5.31898
Spine1  7.28392 -1.77489 6.85994
HEad  -10.908 1.12214 -0.42812
LeftShoulder1  1.42566 -1.06327 -25.0114
LeftArm  -33.1057 30.2146 -63.0871
LeftForeArm  55.9688 -28.8747 -3.35486
LeftHand  -1.02091 -4.52111 12.2125
RightShoulder  1.42512 1.21304 24.1468
RightArm  -2.7684 -39.4852 46.624
RightForeArm  14.924 62.7302 21.0394
RightHand  -0.62315 9.13539 -5.36011
LeftUpLeg  4.04758 0.484836 1.15375
LeftLeg  -3.64096 16.1055 -1.21254
LeftFoot  -0.801651 0.189062 -2.1115
LeftToes  4.76857e-008 1.46588e-008 1.31384e-009
447
root  -3.37914 40.9447 1.17475 -165.802 -88.8631 166.865
RightUpLeg  4.26495 -0.955994 -1.03847
RightLeg  -2.75817 -15.3792 0.485146
RightFoot  -1.31741 -0.217863 2.41225
RightToes  -3.10678e-008 1.75238e-005 3.56266e-009
Spine  -4.17543 -0.966085 -5.24013
Spine1  7.73168 -2.25524 6.49736
HEad  -11.3558 1.98624 -0.352492
LeftShoulder1  1.60848 -1.55798 -25.6078
LeftArm  -33.4742 28.1374 -62.0283
LeftForeArm  56.6547 -27.8464 -3.11144
LeftHand  -1.03691 -4.79434 12.0856
RightShoulder  1.58441 1.6826 24.491
RightArm  -3.26537 -38.7057 47.0491
RightForeArm  11.9515 59.7419 18.5878
RightHand  -0.587862 9.19556 -5.06202
LeftUpLeg  4.32375 0.520791 1.04853
LeftLeg  -3.66788 16.3152 -1.31168
LeftFoot  -0.787281 0.188385 -2.09875
LeftToes  4.76857e-008 1.46588e-008 1.31384e-009
448
root  -3.34383 40.945 1.19285 -155.006 -88.95 155.868
RightUpLeg  4.33213 -0.918269 -1.06352
RightLeg  -2.52808 -15.545 0.311766
RightFoot  -1.36499 -0.23116 2.60735
RightToes  -3.10678e-008 1.75238e-005 3.56266e-009
Spine  -4.47435 -1.44814 -5.20417
Spine1  8.91992 -2.7437 6.19709
HEad  -12.5156 2.69616 -0.189493
LeftShoulder1  1.78574 -2.02947 -26.1251
LeftArm  -31.9358 23.4133 -60.5367
LeftForeArm  54.4492 -27.8136 -3.19597
LeftHand  -0.999554 -5.09648 11.34
RightShoulder  1.75605 2.14592 25.0385
RightArm  -4.15687 -38.0448 47.3763
RightForeArm  7.53749 55.7129 16.0623
RightHand  -0.705647 8.72509 -6.16729
LeftUpLeg  4.40337 0.558082 0.998808
LeftLeg  -3.54879 16.2125 -1.34524
LeftFoot  -0.784239 0.178743 -1.94384
LeftToes  4.76857e-008 1.46588e-008 1.31384e-009
449
root  -3.28076 40.9453 1.19708 -142.15 -89.8346 142.912
RightUpLeg  4.48961 -0.990245 -1.06722
RightLeg  -2.62992 -16.4741 0.40685
RightFoot  -1.34989 -0.229847 2.57626
RightToes  -3.10678e-008 1.75238e-005 3.56266e-009
Spine  -4.0542 -1.87794 -5.33104
Spine1  8.91324 -3.18463 6.127
HEad  -13.4897 2.18973 -0.00828054
LeftShoulder1  1.89894 -2.30733 -26.5522
LeftArm  -28.7327 17.309 -59.2292
LeftForeArm  52.5617 -31.3361 -4.03176
LeftHand  -1.03524 -4.96578 11.8751
RightShoulder  1.9235 2.59258 25.5327
RightArm  -5.13307 -38.5558 47.3212
RightForeArm  4.28501 50.6389 13.4161
RightHand  -0.657401 8.53548 -5.84694
LeftUpLeg  4.07965 0.572127 1.03346
LeftLeg  -3.0802 15.2413 -1.22073
LeftFoot  -0.790222 0.175699 -1.88857
LeftToes  4.76857e-008 1.46588e-008 1.31384e-009
450
root  -3.23398 40.9456 1.17376 -23.5511 -88.6221 24.2729
RightUpLeg  4.75431 -1.01704 -0.964978
RightLeg  -2.94872 -17.8782 0.602567
RightFoot  -1.29595 -0.227762 2.53398
RightToes  -3.10678e-008 1.75238e-005 3.56266e-009
Spine  -3.70811 -2.31113 -5.61988
Spine1  8.77288 -3.62665 6.1352
HEad  -14.2183 1.91648 0.429131
LeftShoulder1  1.8473 -2.14518 -26.5726
LeftArm  -24.5363 9.45364 -58.4082
LeftForeArm  46.7411 -37.2499 -5.77706
LeftHand  -1.06026 -4.64214 12.5213
RightShoulder  1.97094 2.75917 25.44
RightArm  -6.10899 -40.6218 47.6617
RightForeArm  2.52752 45.8247 11.3582
RightHand  -0.641679 7.64406 -6.05871
LeftUpLeg  3.77025 0.70076 1.21578
LeftLeg  -2.80876 13.6721 -1.213
LeftFoot  -0.734442 0.176059 -1.88302
LeftToes  4.76857e-008 1.46588e-008 1.31384e-009
451
root  -3.16823 40.9521 1.13078 -4.9357 -86.7326 5.92911
RightUpLeg  4.76571 -1.09096 -0.873098
RightLeg  -3.4063 -19.7756 0.996428
RightFoot  -1.17773 -0.221021 2.4205
RightToes  -3.10678e-008 1.75238e-005 3.56266e-009
Spine  -3.37284 -2.85952 -5.97668
Spine1  8.30292 -4.12898 6.01855
HEad  -14.687 1.54396 1.55773
LeftShoulder1  1.86499 -2.16466 -26.7797
LeftArm  -21.3961 0.630232 -57.6278
LeftForeArm  41.9783 -45.7474 -8.56855
LeftHand  -1.01092 -4.38116 12.2623
RightShoulder  2.08541 3.147 25.3175
RightArm  -6.05198 -44.2872 47.4577
RightForeArm  2.32313 42.1504 9.98333
RightHand  -0.731252 7.92544 -6.72754
LeftUpLeg  3.02723 0.660069 1.36023
LeftLeg  -2.58768 11.6888 -1.10176
LeftFoot  -0.514895 0.17099 -1.78965
LeftToes  4.76857e-008 1.46588e-008 1.31384e-009
452
root  -3.12864 40.9564 1.08909 -3.80023 -84.6571 4.97202
RightUpLeg  4.88791 -1.20934 -0.847749
RightLeg  -3.79704 -21.7456 1.36066
RightFoot  -1.13978 -0.223374 2.44945
RightToes  -3.10678e-008 1.75238e-005 3.56266e-009
Spine  -2.7022 -3.34546 -6.4205
Spine1  7.48383 -4.54858 5.86842
HEad  -14.6318 0.522847 2.69525
LeftShoulder1  1.80844 -2.07353 -26.2923
LeftArm  -19.6323 -10.1464 -58.2403
LeftForeArm  41.9803 -52.0368 -11.0109
LeftHand  -1.07069 -4.58455 12.7137
RightShoulder  2.17652 3.51973 24.9212
RightArm  -5.09362 -48.8165 47.1295
RightForeArm  3.66231 39.1289 8.89119
RightHand  -0.660146 8.19762 -6.00196
LeftUpLeg  2.46681 0.489387 1.3478
LeftLeg  -2.48319 9.76002 -0.924946
LeftFoot  -0.296824 0.171404 -1.77788
LeftToes  4.76857e-008 1.46588e-008 1.31384e-009
